<?xml version="1.0" standalone="no"?>
<!DOCTYPE svg PUBLIC "-//W3C//DTD SVG 20010904//EN"
 "http://www.w3.org/TR/2001/REC-SVG-20010904/DTD/svg10.dtd">
<svg version="1.0" xmlns="http://www.w3.org/2000/svg"
 width="213.000000pt" height="62.000000pt" viewBox="0 0 213.000000 62.000000"
 preserveAspectRatio="xMidYMid meet">

<g transform="translate(0.000000,62.000000) scale(0.100000,-0.100000)"
fill="#000000" stroke="none">
<path d="M0 310 l0 -310 1065 0 1065 0 0 310 0 310 -1065 0 -1065 0 0 -310z
m1565 160 c0 -20 -6 -26 -28 -28 -29 -4 -44 16 -33 44 4 10 15 14 33 12 22 -2
28 -8 28 -28z m-734 -19 c39 -40 39 -71 0 -71 -21 0 -32 6 -36 20 -9 27 -49
36 -79 17 -46 -31 -40 -156 9 -179 37 -16 75 -3 75 27 0 21 -5 25 -30 25 -25
0 -30 4 -30 25 0 24 2 25 65 25 l65 0 0 -60 c0 -57 -2 -61 -32 -80 -38 -23
-120 -26 -156 -6 -42 23 -62 65 -62 134 0 106 39 151 133 152 41 0 53 -5 78
-29z m-621 -120 c0 -85 12 -108 50 -96 18 6 20 14 20 91 l0 84 35 0 35 0 0
-114 0 -114 -81 0 c-112 0 -119 8 -119 133 l0 95 30 0 30 0 0 -79z m343 58
c37 -28 53 -86 37 -133 -21 -66 -89 -94 -154 -65 -29 13 -56 64 -56 104 0 38
27 90 53 103 37 18 92 14 120 -9z m515 1 c18 -17 22 -32 22 -78 0 -31 3 -73 6
-93 l6 -37 -78 0 c-66 0 -83 3 -101 21 -49 45 -8 117 67 117 29 0 40 4 40 15
0 21 -29 31 -51 17 -26 -17 -69 -15 -69 2 0 8 12 24 26 35 36 28 102 28 132 1z
m122 10 c0 -7 6 -7 19 0 28 15 72 12 91 -5 15 -14 18 -14 30 0 7 9 29 15 51
15 57 0 69 -24 69 -137 l0 -93 -30 0 -29 0 -3 81 c-2 66 -6 84 -21 93 -31 19
-47 -17 -47 -101 l0 -73 -30 0 -30 0 0 84 c0 77 -2 85 -20 91 -38 12 -50 -11
-50 -96 l0 -79 -30 0 -30 0 0 115 0 115 30 0 c17 0 30 -5 30 -10z m380 -105
l0 -115 -35 0 -35 0 0 115 0 115 35 0 35 0 0 -115z m100 103 c0 -9 3 -9 12 0
7 7 28 12 48 12 59 0 73 -24 78 -136 l4 -94 -36 0 -36 0 0 84 c0 77 -2 85 -20
91 -38 12 -50 -11 -50 -96 l0 -79 -30 0 -30 0 0 115 0 115 30 0 c17 0 30 -5
30 -12z m380 -120 l0 -130 -29 -29 c-24 -23 -38 -29 -74 -29 -59 0 -95 27 -78
58 11 20 12 20 41 4 32 -18 62 -10 68 20 2 11 -6 13 -33 10 -47 -6 -81 18 -96
67 -15 50 -4 107 26 136 20 21 32 24 99 23 l76 0 0 -130z"/>
<path d="M462 348 c-7 -7 -12 -30 -12 -53 0 -60 30 -83 64 -49 21 20 21 78 0
98 -19 19 -36 20 -52 4z"/>
<path d="M983 273 c-16 -6 -17 -29 -3 -38 18 -11 50 6 50 26 0 19 -19 24 -47
12z"/>
<path d="M1922 348 c-17 -17 -15 -93 3 -108 8 -6 22 -10 32 -8 15 3 18 13 18
63 0 52 -3 60 -20 63 -11 1 -26 -3 -33 -10z"/>
</g>
</svg>
